<svg width="256" height="256" viewBox="0 0 256 256" fill="none" xmlns="http://www.w3.org/2000/svg">
<rect x="10" y="11" width="235" height="235" rx="40" fill="#FF4F14"/>
<path fill-rule="evenodd" clip-rule="evenodd" d="M156.534 62.1325C169.459 66.166 180.89 73.9068 189.426 84.3653C190.362 85.5116 190.121 87.1949 188.94 88.0852L169.523 102.714C168.339 103.605 166.663 103.36 165.694 102.238C158.653 94.092 148.245 88.937 136.633 88.937C115.427 88.937 98.2363 106.128 98.2363 127.333C98.2363 148.539 115.427 165.729 136.633 165.729C147.745 165.729 157.755 161.009 164.766 153.463C165.756 152.398 167.399 152.198 168.55 153.085L188.498 168.461C189.67 169.364 189.891 171.05 188.943 172.185C180.293 182.55 168.777 190.164 155.81 194.055C141.985 198.204 127.208 197.912 113.559 193.22C99.9096 188.528 88.0757 179.673 79.7236 167.902C71.3714 156.131 66.9217 142.037 67.001 127.604C67.0804 113.171 71.6847 99.1264 80.1657 87.4479C88.6467 75.7694 100.577 67.0453 114.277 62.5039C127.977 57.9624 142.757 57.8325 156.534 62.1325Z" fill="white"/>
</svg>
