<svg width="172" height="35" viewBox="0 0 172 35" fill="none" xmlns="http://www.w3.org/2000/svg">
<g clip-path="url(#clip0_1636_109)">
<path fill-rule="evenodd" clip-rule="evenodd" d="M22.0708 1.10225C25.2566 2.09653 28.0747 4.00468 30.1787 6.58276C30.4094 6.86534 30.3501 7.28029 30.0588 7.49976L25.2726 11.1058C24.9808 11.3256 24.5675 11.265 24.3286 10.9885C22.593 8.98046 20.0273 7.70973 17.1648 7.70973C11.9375 7.70973 7.69993 11.9473 7.69993 17.1746C7.69993 22.4019 11.9375 26.6395 17.1648 26.6395C19.9041 26.6395 22.3716 25.4759 24.0999 23.6159C24.3439 23.3533 24.7489 23.3038 25.0328 23.5227L29.9499 27.3127C30.2388 27.5354 30.2935 27.951 30.0597 28.231C27.9275 30.7858 25.0886 32.6628 21.8921 33.622C18.4843 34.6446 14.8417 34.5726 11.4771 33.416C8.11241 32.2595 5.19529 30.0767 3.13644 27.1751C1.07758 24.2734 -0.0192965 20.7991 0.000256951 17.2414C0.0198104 13.6835 1.15481 10.2215 3.24543 7.34266C5.33605 4.46384 8.277 2.31329 11.6541 1.1938C15.0313 0.0743133 18.6745 0.0422944 22.0708 1.10225Z" fill="white"/>
<path fill-rule="evenodd" clip-rule="evenodd" d="M50.6839 34.1745C60.0755 34.1745 67.6886 26.5612 67.6886 17.1698C67.6886 7.7783 60.0755 0.165039 50.6839 0.165039C41.2924 0.165039 33.6792 7.7783 33.6792 17.1698C33.6792 26.5612 41.2924 34.1745 50.6839 34.1745ZM50.8444 26.7951C56.0716 26.7951 60.3092 22.5575 60.3092 17.3302C60.3092 12.1029 56.0716 7.8653 50.8444 7.8653C45.6172 7.8653 41.3795 12.1029 41.3795 17.3302C41.3795 22.5575 45.6172 26.7951 50.8444 26.7951Z" fill="white"/>
<path fill-rule="evenodd" clip-rule="evenodd" d="M105.495 0.825416C105.495 0.4607 105.2 0.165039 104.835 0.165039H96.25C95.8852 0.165039 95.5897 0.4607 95.5897 0.825416V4.37831C95.5897 4.53594 95.6461 4.68836 95.7485 4.80805L104.333 14.8238C104.733 15.2893 105.495 15.0071 105.495 14.394V0.825416ZM73.1368 33.5141C73.1368 33.879 73.4324 34.1745 73.7972 34.1745H82.3821C82.747 34.1745 83.0425 33.879 83.0425 33.5141V29.2956C83.0425 29.1411 82.9883 28.9916 82.8893 28.8729L74.3044 18.571C73.9092 18.0965 73.1368 18.3761 73.1368 18.9938V33.5141ZM73.1368 4.54288C73.1368 4.70084 73.1933 4.85355 73.2963 4.97335L98.1985 33.9447C98.324 34.0906 98.5069 34.1745 98.6994 34.1745H104.835C105.2 34.1745 105.495 33.879 105.495 33.5141V30.2888C105.495 30.1328 105.44 29.9817 105.339 29.8625L80.4337 0.3991C80.3082 0.250663 80.1236 0.165039 79.9295 0.165039H73.7972C73.4324 0.165039 73.1368 0.4607 73.1368 0.825416V4.54288Z" fill="white"/>
<path fill-rule="evenodd" clip-rule="evenodd" d="M144.788 0.825416C144.788 0.4607 145.083 0.165039 145.448 0.165039H170.212C170.577 0.165039 170.873 0.4607 170.873 0.825416V6.43862C170.873 6.80335 170.577 7.099 170.212 7.099H145.448C145.083 7.099 144.788 6.80335 144.788 6.43862V0.825416ZM144.788 14.3632C144.788 13.9984 145.083 13.7028 145.448 13.7028H170.212C170.577 13.7028 170.873 13.9984 170.873 14.3632V19.9764C170.873 20.3411 170.577 20.6367 170.212 20.6367H145.448C145.083 20.6367 144.788 20.3411 144.788 19.9764V14.3632ZM170.873 27.9009C170.873 27.5362 170.577 27.2405 170.212 27.2405H145.448C145.083 27.2405 144.788 27.5362 144.788 27.9009V33.5141C144.788 33.879 145.083 34.1745 145.448 34.1745H170.212C170.577 34.1745 170.873 33.879 170.873 33.5141V27.9009Z" fill="white"/>
<path d="M119.858 9.57547C119.858 4.84314 129.656 7.19471 134.128 8.99761C134.46 9.1314 134.839 8.98744 134.992 8.66385L137.269 3.84013C137.414 3.53424 137.305 3.16755 137.009 3.00349C132.694 0.610162 126.914 0 124.481 0C114.311 0 112.264 5.61321 112.264 10.2358C112.264 13.3583 114.227 16.4807 117.339 17.9747C117.368 17.9884 117.396 17.9995 117.426 18.0088C121.72 19.3246 131.795 21.617 130.448 25.8506C130.433 25.8954 130.412 25.9407 130.387 25.9803C128.121 29.5112 119.204 27.1999 115.003 25.2223C114.672 25.0662 114.274 25.1947 114.107 25.5207L111.396 30.8063C111.235 31.1205 111.351 31.5072 111.661 31.677C118.29 35.3127 122.78 34.9974 126.958 34.754C143.962 33.7634 140.165 17.1698 129.599 14.6934C120.849 12.0519 119.858 11.8868 119.858 9.57547Z" fill="white"/>
</g>
<defs>
<clipPath id="clip0_1636_109">
<rect width="171.038" height="35" fill="white"/>
</clipPath>
</defs>
</svg>
